<svg width="264" height="56" viewBox="24 16 216 24" fill="none" xmlns="http://www.w3.org/2000/svg">
<g clip-path="url(#clip0_4861_21052)">
<path fill-rule="evenodd" clip-rule="evenodd" d="M163.92 19.879C163.896 19.4742 163.994 19.0716 164.201 18.7232C164.409 18.3748 164.716 18.0967 165.083 17.9248C165.451 17.753 165.861 17.6954 166.261 17.7594C166.662 17.8235 167.034 18.0063 167.329 18.2841C167.624 18.5619 167.829 18.922 167.918 19.3177C168.006 19.7134 167.974 20.1266 167.825 20.5036C167.675 20.8807 167.417 21.2043 167.081 21.4326C166.746 21.6609 166.35 21.7833 165.945 21.784C165.687 21.792 165.43 21.7491 165.188 21.6576C164.947 21.5662 164.726 21.4281 164.538 21.2512C164.35 21.0743 164.198 20.862 164.092 20.6266C163.986 20.3911 163.928 20.1371 163.92 19.879ZM164.07 23.524H167.805V37.024H164.07V23.524ZM64.2 19.024H57V37.024H64.71C68.745 37.024 70.905 34.909 70.905 32.044C70.958 30.9402 70.5707 29.8605 69.8282 29.042C69.0857 28.2236 68.0487 27.7334 66.945 27.679V27.499C67.8642 27.3575 68.7008 26.8872 69.2995 26.1754C69.8981 25.4637 70.2181 24.5588 70.2 23.629C70.2 20.944 68.175 19.024 64.2 19.024ZM66.345 24.244C66.345 25.669 65.13 26.524 63.63 26.524L60.75 26.569V22.069H63.69C65.385 22.069 66.345 22.819 66.345 24.244ZM66.9 31.639C66.9 32.989 66.03 33.874 63.9 33.874H60.75V29.104H63.9C64.2674 29.0508 64.6418 29.0762 64.9986 29.1784C65.3554 29.2806 65.6865 29.4573 65.97 29.6969C66.2535 29.9365 66.483 30.2334 66.6433 30.5682C66.8036 30.903 66.8911 31.2679 66.9 31.639ZM72.75 37.024H76.545L76.485 19.024H72.75V37.024ZM78.51 30.319C78.51 26.134 81.06 23.344 85.155 23.344C89.25 23.344 91.8 26.134 91.8 30.319C91.8 34.504 89.25 37.279 85.155 37.279C81.06 37.279 78.51 34.489 78.51 30.319ZM87.99 30.3116C87.9879 27.9604 87.013 26.224 85.17 26.224C83.325 26.224 82.305 27.964 82.305 30.319C82.305 32.674 83.28 34.399 85.17 34.399C87.058 34.399 87.988 32.6628 87.99 30.3116ZM99.84 23.344C95.745 23.344 93.21 26.179 93.21 30.319C93.21 34.429 95.7 37.279 99.84 37.279C103.395 37.279 105.66 35.179 105.84 32.074H102.3C102.261 32.6921 101.985 33.2713 101.53 33.6906C101.074 34.1099 100.474 34.3368 99.855 34.324C98.1 34.324 96.975 32.779 96.975 30.274C96.975 27.769 98.115 26.269 99.855 26.269C100.474 26.2562 101.074 26.4832 101.53 26.9025C101.985 27.3218 102.261 27.901 102.3 28.519H105.84C105.72 25.399 103.365 23.344 99.84 23.344ZM107.805 19.024H111.555V28.639H111.75L116.085 23.524H120.375L115.365 29.374L120.63 37.024H116.25L112.56 31.579L111.555 32.734V37.024H107.805V19.024ZM127.245 23.344C123.15 23.344 120.615 26.179 120.615 30.319C120.615 34.429 123.105 37.279 127.275 37.279C130.845 37.279 133.095 35.179 133.275 32.074H129.75C129.708 32.6934 129.429 33.2726 128.971 33.6916C128.512 34.1106 127.911 34.337 127.29 34.324C125.535 34.324 124.41 32.779 124.41 30.274C124.41 27.769 125.55 26.269 127.29 26.269C127.911 26.256 128.512 26.4825 128.971 26.9015C129.429 27.3204 129.708 27.8997 129.75 28.519H133.245C133.14 25.399 130.77 23.344 127.245 23.344ZM138.96 37.024H135.225V19.024H138.855V25.909H139.02C139.325 25.103 139.883 24.4175 140.611 23.9552C141.338 23.4928 142.196 23.2784 143.055 23.344C145.86 23.344 147.72 25.264 147.72 28.429V37.024H143.97V29.089C144.02 28.7521 143.993 28.4084 143.894 28.0829C143.794 27.7573 143.623 27.458 143.393 27.2067C143.163 26.9554 142.881 26.7584 142.565 26.6299C142.25 26.5015 141.91 26.4448 141.57 26.464C141.21 26.4495 140.852 26.5121 140.518 26.6478C140.185 26.7835 139.885 26.989 139.637 27.2505C139.39 27.512 139.202 27.8234 139.085 28.1638C138.968 28.5042 138.925 28.8657 138.96 29.224V37.024ZM154.62 29.089C151.95 29.344 149.55 30.259 149.55 33.259C149.55 35.929 151.455 37.279 154.035 37.279C154.828 37.3403 155.621 37.172 156.321 36.7943C157.02 36.4165 157.596 35.8454 157.98 35.149H158.085V37.024H161.64V27.904C161.64 24.679 158.91 23.329 155.91 23.329C152.67 23.329 150.555 24.874 150.03 27.334L153.495 27.619C153.663 27.1321 153.993 26.7174 154.43 26.4444C154.866 26.1714 155.384 26.0566 155.895 26.119C157.17 26.119 157.89 26.764 157.89 27.874C157.89 28.759 156.975 28.864 154.62 29.089ZM157.92 30.694V32.194C157.899 32.5391 157.81 32.8766 157.657 33.1866C157.504 33.4966 157.29 33.7729 157.029 33.9993C156.768 34.2257 156.464 34.3975 156.135 34.5048C155.806 34.6121 155.46 34.6526 155.115 34.624C153.96 34.624 153.135 34.099 153.135 33.049C153.135 31.999 154.005 31.474 155.325 31.294C156.215 31.221 157.089 31.0189 157.92 30.694ZM170.25 37.024H174.06L174 29.224C173.959 28.8695 173.994 28.5102 174.105 28.1708C174.216 27.8314 174.398 27.5199 174.64 27.2578C174.883 26.9956 175.179 26.7889 175.508 26.6519C175.838 26.5149 176.193 26.4508 176.55 26.464C176.889 26.4476 177.228 26.5061 177.542 26.6355C177.856 26.7649 178.138 26.9619 178.367 27.2126C178.596 27.4632 178.767 27.7614 178.868 28.0857C178.969 28.41 178.997 28.7526 178.95 29.089V37.024H182.7V28.429C182.7 25.279 180.855 23.344 178.035 23.344C177.174 23.2908 176.318 23.51 175.588 23.9703C174.859 24.4307 174.293 25.1089 173.97 25.909H173.82V23.524H170.25V37.024Z" fill="black"/>
<path opacity="0.8" fill-rule="evenodd" clip-rule="evenodd" d="M223.95 23.524H220.38L220.365 37.024H224.115V28.924C224.084 28.6144 224.117 28.3018 224.212 28.0055C224.307 27.7093 224.463 27.4359 224.668 27.2022C224.873 26.9686 225.125 26.7798 225.407 26.6477C225.688 26.5155 225.994 26.4428 226.305 26.434C226.589 26.4218 226.871 26.4708 227.134 26.5775C227.397 26.6842 227.634 26.8461 227.829 27.0524C228.024 27.2586 228.172 27.5044 228.264 27.7729C228.355 28.0415 228.388 28.3266 228.36 28.609V37.024H231.99V28.774C231.958 28.4728 231.99 28.1682 232.086 27.8808C232.181 27.5933 232.338 27.3297 232.544 27.1079C232.75 26.886 233.001 26.711 233.281 26.5947C233.561 26.4785 233.862 26.4237 234.165 26.434C234.457 26.421 234.748 26.4717 235.018 26.5825C235.288 26.6933 235.531 26.8617 235.729 27.0758C235.927 27.2899 236.077 27.5447 236.167 27.8225C236.257 28.1002 236.285 28.3942 236.25 28.684V37.024H240V28.024C240.029 27.0334 239.721 26.0623 239.125 25.2704C238.529 24.4786 237.681 23.9131 236.721 23.667C235.761 23.4209 234.746 23.5088 233.842 23.9163C232.939 24.3237 232.201 25.0265 231.75 25.909H231.54C231.312 25.1261 230.824 24.4446 230.155 23.978C229.487 23.5113 228.678 23.2876 227.865 23.344C227.046 23.3073 226.238 23.5376 225.562 24.0002C224.885 24.4629 224.378 25.1328 224.115 25.909H223.95V23.524ZM197.7 23.344C193.605 23.344 191.085 26.179 191.085 30.319C191.085 34.429 193.56 37.279 197.775 37.279C201.345 37.279 203.61 35.179 203.775 32.074H200.25C200.208 32.6934 199.929 33.2726 199.471 33.6916C199.012 34.1106 198.411 34.337 197.79 34.324C196.05 34.324 194.91 32.779 194.91 30.274C194.91 27.769 196.05 26.269 197.79 26.269C198.411 26.256 199.012 26.4825 199.471 26.9015C199.929 27.3204 200.208 27.8997 200.25 28.519H203.7C203.595 25.399 201.225 23.344 197.7 23.344ZM185.87 33.6588C185.477 34.0494 185.254 34.5797 185.25 35.1341C185.248 35.4111 185.301 35.6858 185.406 35.9423C185.51 36.1988 185.665 36.4321 185.86 36.6287C186.055 36.8253 186.287 36.9813 186.543 37.0878C186.799 37.1943 187.073 37.2491 187.35 37.2491C187.907 37.2491 188.441 37.0278 188.835 36.634C189.229 36.2402 189.45 35.706 189.45 35.1491C189.45 34.5921 189.229 34.058 188.835 33.6641C188.441 33.2703 187.907 33.0491 187.35 33.0491C186.796 33.0491 186.264 33.2682 185.87 33.6588ZM205.14 30.319C205.14 26.134 207.69 23.344 211.785 23.344C215.88 23.344 218.415 26.134 218.415 30.319C218.415 34.504 215.88 37.279 211.785 37.279C207.69 37.279 205.14 34.489 205.14 30.319ZM214.62 30.3116C214.618 27.9604 213.643 26.224 211.8 26.224C209.955 26.224 208.935 27.964 208.935 30.319C208.935 32.674 209.91 34.399 211.8 34.399C213.688 34.399 214.618 32.6628 214.62 30.3116Z" fill="#B1B8C7"/>
<path d="M26.0535 24.7222L24.9585 25.8172C24.6555 26.1083 24.4143 26.4577 24.2496 26.8443C24.0849 27.231 24 27.6469 24 28.0672C24 28.4874 24.0849 28.9034 24.2496 29.29C24.4143 29.6766 24.6555 30.026 24.9585 30.3172L33.78 39.2257C33.9891 39.4396 34.2324 39.617 34.5 39.7507V28.9522L26.0535 24.7222Z" fill="#3D89F5"/>
<path d="M45.9465 24.7222L47.0415 25.8172C47.3445 26.1083 47.5857 26.4577 47.7504 26.8443C47.9151 27.231 48 27.6469 48 28.0672C48 28.4874 47.9151 28.9034 47.7504 29.29C47.5857 29.6766 47.3445 30.026 47.0415 30.3172L38.22 39.2257C38.0109 39.4396 37.7676 39.617 37.5 39.7507V28.9522L45.9465 24.7222Z" fill="#1656B9"/>
<path d="M43.8284 22.4869L38.3084 16.952C38.0162 16.6508 37.6665 16.4113 37.28 16.2478C36.8935 16.0843 36.4781 16 36.0584 16C35.6388 16 35.2234 16.0843 34.8369 16.2478C34.4504 16.4113 34.1007 16.6508 33.8084 16.952L28.2734 22.4869L36.0284 26.3569L43.8284 22.4869Z" fill="#85B5F8"/>
</g>
<defs>
<clipPath id="clip0_4861_21052">
<rect width="216" height="24" fill="white" transform="translate(24 16)"/>
</clipPath>
</defs>
</svg>
