<svg width="22" height="22" viewBox="0 0 22 22" fill="none" xmlns="http://www.w3.org/2000/svg">
<path d="M2.71127 8.26828L1.79878 9.18078C1.54622 9.4234 1.34528 9.71455 1.20802 10.0368C1.07075 10.359 1 10.7056 1 11.0558C1 11.406 1.07075 11.7526 1.20802 12.0748C1.34528 12.397 1.54622 12.6882 1.79878 12.9308L9.15001 20.3546C9.32424 20.5328 9.52703 20.6807 9.75 20.7921V11.7933L2.71127 8.26828Z" fill="#98A1B2"/>
<path d="M19.2887 8.26828L20.2012 9.18078C20.4538 9.4234 20.6547 9.71455 20.792 10.0368C20.9292 10.359 21 10.7056 21 11.0558C21 11.406 20.9292 11.7526 20.792 12.0748C20.6547 12.397 20.4538 12.6882 20.2012 12.9308L12.85 20.3546C12.6758 20.5328 12.473 20.6807 12.25 20.7921V11.7933L19.2887 8.26828Z" fill="#98A1B2"/>
<path d="M17.5238 6.40579L12.9238 1.79329C12.6803 1.5423 12.3888 1.34275 12.0668 1.20648C11.7447 1.07021 11.3985 1 11.0488 1C10.6991 1 10.3529 1.07021 10.0308 1.20648C9.70875 1.34275 9.41733 1.5423 9.1738 1.79329L4.5613 6.40579L11.0238 9.63079L17.5238 6.40579Z" fill="#98A1B2"/>
</svg>
