<svg width="24" height="24" fill="#98A1B2" xmlns="http://www.w3.org/2000/svg"><path fill-rule="evenodd" clip-rule="evenodd" d="M11.301 17.711a.99.99 0 0 0 1.398 0l7.723-7.64c.39-.384.62-.915.572-1.466C20.578 3.78 16.71 0 12 0S3.422 3.78 3.006 8.605c-.047.55.183 1.082.572 1.467l7.723 7.64ZM9.648 8.062a.876.876 0 0 0-.045.68l2.159 6.751a.25.25 0 0 0 .476 0l2.159-6.75a.876.876 0 0 0-.045-.68c-.505-.945-1.37-1.568-2.352-1.568-.982 0-1.847.623-2.352 1.567Zm4.18 6.758c-.074.078-.202-.002-.165-.103L15.6 9.323c.48-1.037 1.37-1.745 2.49-1.745.395 0 .772.088 1.115.247.505.235.506.906.117 1.308L13.83 14.82ZM8.4 9.323l1.938 5.394c.037.101-.09.18-.166.103L4.677 9.133c-.39-.402-.388-1.073.117-1.308.343-.16.72-.247 1.115-.247 1.12 0 2.01.708 2.49 1.745Z"/><path d="M14.5 21.5a2.5 2.5 0 1 1-5 0 2.5 2.5 0 0 1 5 0Z"/></svg>