<svg width="24" height="24" fill="#98A1B2" xmlns="http://www.w3.org/2000/svg"><g clip-path="url(#a)"><path fill-rule="evenodd" clip-rule="evenodd" d="M13.029.275a2.053 2.053 0 0 0-2.053 0L2.36 5.249a2.053 2.053 0 0 0-1.026 1.777v9.948c0 .733.391 1.41 1.026 1.777l8.615 4.974a2.053 2.053 0 0 0 2.053 0l8.614-4.974a2.053 2.053 0 0 0 1.027-1.777V7.026c0-.733-.392-1.41-1.027-1.777L13.03.275Zm-1.534 1.862a1 1 0 0 1 .995-.009l8 4.5a1 1 0 0 1-.98 1.744L19 8.085V18a1 1 0 1 1-2 0V6.96l-4-2.25V12h2a1 1 0 1 1 0 2h-2v7a1 1 0 1 1-2 0V3a1 1 0 0 1 .495-.863ZM9 5a1 1 0 0 0-2 0v7.838L4.949 6.684A1 1 0 0 0 3 7v10a1 1 0 1 0 2 0v-3.838l2.051 6.154A1 1 0 0 0 9 19V5Z"/></g><defs><clipPath id="a"><path fill="#fff" d="M0 0h24v24H0z"/></clipPath></defs></svg>