<svg width="24" height="24" fill="#98A1B2" xmlns="http://www.w3.org/2000/svg"><g clip-path="url(#a)"><path d="M12 0C5.376 0 0 5.376 0 12s5.376 12 12 12 12-5.376 12-12S18.624 0 12 0Zm1.2 20.4h-2.4V18h2.4v2.4Zm2.484-9.3-1.08 1.104C13.74 13.08 13.2 13.8 13.2 15.6h-2.4V15c0-1.32.54-2.52 1.404-3.396l1.488-1.512A2.346 2.346 0 0 0 14.4 8.4C14.4 7.08 13.32 6 12 6c-1.32 0-2.4 1.08-2.4 2.4H7.2c0-2.652 2.148-4.8 4.8-4.8 2.652 0 4.8 2.148 4.8 4.8a3.818 3.818 0 0 1-1.116 2.7Z"/></g><defs><clipPath id="a"><path fill="#fff" d="M0 0h24v24H0z"/></clipPath></defs></svg>