<svg viewBox="0 0 32 32" fill="currentColor" xmlns="http://www.w3.org/2000/svg"><path fill-rule="evenodd" clip-rule="evenodd" d="M16 1C7.75 1 1 7.92 1 16.377c0 6.824 4.313 12.59 10.219 14.608.75.096 1.031-.288 1.031-.769v-2.595c-4.219.962-5.063-2.018-5.063-2.018-.656-1.73-1.687-2.21-1.687-2.21-1.406-.961.094-.961.094-.961 1.5.096 2.343 1.537 2.343 1.537 1.313 2.307 3.47 1.634 4.407 1.25a3.35 3.35 0 0 1 .937-2.018c-3.375-.385-6.844-1.73-6.844-7.593 0-1.634.563-3.075 1.5-4.132-.187-.385-.656-1.923.188-4.037 0 0 1.219-.384 4.125 1.538 1.219-.385 2.438-.48 3.75-.48 1.313 0 2.531.192 3.75.48 2.906-2.018 4.125-1.634 4.125-1.634.844 2.114.281 3.652.188 4.037.937 1.057 1.5 2.402 1.5 4.132 0 5.863-3.47 7.208-6.844 7.593.562.48 1.031 1.441 1.031 2.883v4.228c0 .385.281.865 1.031.77C26.688 28.965 31 23.2 31 16.376 31 7.92 24.25 1 16 1Z"/></svg>