<svg viewBox="0 0 32 32" fill="currentColor" xmlns="http://www.w3.org/2000/svg"><path d="M15.995 5.342c3.472 0 3.88.016 5.251.077 1.27.057 1.956.269 2.415.45a4.033 4.033 0 0 1 1.496.97c.454.453.737.886.97 1.495.175.46.392 1.145.448 2.414.062 1.373.078 1.78.078 5.252 0 3.472-.016 3.88-.078 5.252-.056 1.269-.268 1.955-.448 2.414a4.033 4.033 0 0 1-.97 1.496 3.969 3.969 0 0 1-1.496.97c-.46.175-1.146.392-2.415.448-1.372.062-1.78.078-5.251.078-3.472 0-3.88-.016-5.252-.078-1.269-.056-1.955-.268-2.414-.448a4.033 4.033 0 0 1-1.496-.97 3.97 3.97 0 0 1-.97-1.496c-.175-.46-.392-1.145-.449-2.414-.062-1.373-.077-1.78-.077-5.252 0-3.472.015-3.88.077-5.252.057-1.269.269-1.955.45-2.414a4.033 4.033 0 0 1 .969-1.496 3.97 3.97 0 0 1 1.496-.97c.46-.175 1.145-.392 2.414-.449 1.373-.067 1.785-.077 5.252-.077Zm0-2.342c-3.529 0-3.972.015-5.36.077-1.383.062-2.327.284-3.152.604a6.334 6.334 0 0 0-2.3 1.501 6.446 6.446 0 0 0-1.502 2.3c-.32.826-.542 1.77-.604 3.158C3.015 12.023 3 12.466 3 15.995c0 3.528.015 3.972.077 5.36.062 1.382.284 2.326.604 3.157.33.856.779 1.578 1.501 2.3a6.447 6.447 0 0 0 2.3 1.502c.826.32 1.77.541 3.158.603 1.388.062 1.826.078 5.36.078 3.534 0 3.972-.016 5.36-.078 1.383-.062 2.326-.283 3.157-.603a6.336 6.336 0 0 0 2.3-1.501 6.445 6.445 0 0 0 1.502-2.301c.32-.826.542-1.77.604-3.157.062-1.388.077-1.826.077-5.36 0-3.534-.015-3.972-.077-5.36-.062-1.383-.284-2.327-.604-3.157a6.333 6.333 0 0 0-1.501-2.301 6.447 6.447 0 0 0-2.3-1.501c-.826-.32-1.77-.542-3.158-.604C19.967 3.015 19.523 3 15.995 3Z"/><path d="M15.995 9.325a6.676 6.676 0 1 0 .002 13.352 6.676 6.676 0 0 0-.002-13.352Zm0 11.003a4.333 4.333 0 1 1 0-8.666 4.333 4.333 0 1 1 0 8.666Zm6.938-9.714a1.558 1.558 0 1 0 0-3.116 1.558 1.558 0 0 0 0 3.116Z"/></svg>