<svg viewBox="0 0 30 22" fill="currentColor" xmlns="http://www.w3.org/2000/svg"><g clip-path="url(#a)"><path d="M16.222 10.59c0 3.008-2.42 5.447-5.404 5.447-2.985 0-5.405-2.439-5.405-5.446 0-3.008 2.42-5.447 5.405-5.447 2.985 0 5.404 2.439 5.404 5.447Zm5.929 0c0 2.832-1.21 5.128-2.702 5.128-1.493 0-2.702-2.296-2.702-5.127 0-2.832 1.21-5.128 2.702-5.128s2.702 2.295 2.702 5.128m2.425-.001c0 2.537-.425 4.594-.95 4.594-.525 0-.95-2.057-.95-4.593 0-2.537.425-4.594.95-4.594.525 0 .95 2.057.95 4.594Z"/></g><defs><clipPath id="a"><path fill="#fff" d="M0 0h30v21.144H0z"/></clipPath></defs></svg>