<svg viewBox="0 0 32 32" fill="currentColor" xmlns="http://www.w3.org/2000/svg"><path fill-rule="evenodd" clip-rule="evenodd" d="M28.2 12.288c2.1 0 3.8 1.698 3.8 3.796 0 1.398-.7 2.596-1.9 3.196.1.2.1.499.1.799 0 2.596-1.5 5.093-4.3 6.891-2.7 1.698-6.2 2.697-10 2.697s-7.3-.9-10-2.697c-2.8-1.798-4.3-4.195-4.3-6.891 0-.15.025-.3.05-.45.025-.15.05-.3.05-.45-1-.698-1.7-1.897-1.7-3.195 0-2.098 1.7-3.796 3.8-3.796.9 0 1.7.3 2.4.8 2.5-1.499 5.8-2.397 9.2-2.497l2.1-6.492c.1-.4.6-.7 1-.6l5.3 1.299C24.4 3.699 25.5 3 26.7 3c1.8 0 3.2 1.398 3.2 3.196 0 1.798-1.4 3.196-3.2 3.196-1.7 0-3.1-1.298-3.2-2.996L19 5.397l-1.7 5.293c3.2.1 6.2 1 8.5 2.497.6-.599 1.5-.899 2.4-.899Zm-1.5-7.59c.8 0 1.5.699 1.5 1.498s-.7 1.498-1.5 1.498-1.5-.699-1.5-1.498.7-1.498 1.5-1.498ZM9.1 18.48c0-1.199 1-2.198 2.2-2.198 1.2 0 2.2 1 2.2 2.198s-1 2.197-2.2 2.197c-1.2 0-2.2-.999-2.2-2.197Zm12.2 6.392c-1.1 1.098-2.8 1.697-5.3 1.697-2.4 0-4.1-.499-5.3-1.697-.3-.3-.3-.9 0-1.199.3-.3.9-.3 1.2 0 .8.8 2.1 1.099 4 1.099s3.2-.4 4-1.099c.3-.3.9-.3 1.2 0 .5.3.5.8.2 1.199Zm-.5-4.195c-1.2 0-2.2-.999-2.2-2.197 0-1.199 1-2.198 2.2-2.198 1.2 0 2.2 1 2.2 2.198s-1 2.197-2.2 2.197Z"/></svg>