<svg viewBox="0 0 24 24" fill="#98A1B2" xmlns="http://www.w3.org/2000/svg"><g clip-path="url(#a)"><path fill-rule="evenodd" clip-rule="evenodd" d="M20.001 8a3.999 3.999 0 1 1-7.999 0c0-2.209 1.79-3.998 4-3.998S20.001 5.792 20.001 8ZM8.004 17.999c0-2.659 5.329-3.999 7.998-3.999C18.672 14 24 15.34 24 18v2H8.004v-2ZM7 12.002c1.934 0 3.5-1.566 3.5-3.5s-1.566-3.5-3.5-3.5a3.499 3.499 0 0 0-3.5 3.5c0 1.934 1.566 3.5 3.5 3.5Zm0 1.75c.873 0 2.072.164 3.23.49-.75.334-1.465.754-2.03 1.275-.671.62-1.196 1.45-1.196 2.482v1.003H0v-1.75c0-2.328 4.664-3.5 7-3.5Z"/></g><defs><clipPath id="a"><path fill="#fff" d="M0 0h24v24H0z"/></clipPath></defs></svg>