<svg viewBox="0 0 32 32" fill="currentColor" xmlns="http://www.w3.org/2000/svg"><path fill-rule="evenodd" clip-rule="evenodd" d="M4.06 3h23.953c.57 0 1.06.487.978 1.056v23.888c0 .569-.489 1.056-1.06 1.056H4.06C3.49 29 3 28.512 3 27.863V4.056C3 3.487 3.489 3 4.06 3Zm4.725 8.044a2.274 2.274 0 0 1-2.282-2.275c0-1.219.978-2.275 2.282-2.275 1.222 0 2.281.975 2.281 2.275 0 1.3-1.06 2.275-2.281 2.275ZM10.74 25.18H6.83V12.75h3.91v12.431Zm14.503 0h-3.83v-6.01c0-1.463 0-3.25-2.036-3.25-2.037 0-2.282 1.543-2.282 3.168v6.175h-3.83V12.75h3.586v1.706h.081c.49-.975 1.793-2.031 3.667-2.031 3.91 0 4.644 2.6 4.644 5.931v6.825Z"/></svg>