<svg viewBox="0 0 24 24" xmlns="http://www.w3.org/2000/svg" fill="currentColor"><path d="M17.286 5.286 12.07 0 6.786 5.286 12.07 10.5l5.215-5.214zm-8.357 0 3.142-3.143 3.072 3.143-3.072 3.071L8.93 5.286zM24 12l-5.214-5.214L13.57 12l5.215 5.286L24 12zm-13.429 0L5.286 6.786 0 12l5.286 5.286L10.57 12zm5.072 0 3.143-3.143L21.929 12l-3.143 3.143L15.643 12zm-13.5 0 3.143-3.143L8.429 12l-3.143 3.143L2.143 12zm15.143 6.786L12.07 13.5l-5.285 5.286L12.07 24l5.215-5.214zm-8.357 0 3.142-3.143 3.072 3.143-3.072 3.071-3.142-3.071z"/></svg>