<svg viewBox="0 0 32 32" fill="currentColor" xmlns="http://www.w3.org/2000/svg"><path d="m13.335 14.82 1.278 3.815 3.992-1.337-1.278-3.814-3.992 1.337Z"/><path fill-rule="evenodd" clip-rule="evenodd" d="M11.884 2.248c10.29-3.087 14.78-.655 17.868 9.636 3.087 10.29.655 14.78-9.636 17.868-10.29 3.087-14.78.655-17.868-9.636-3.087-10.29-.655-14.78 9.636-17.868Zm10.665 16.933 1.964-.655c.842-.28 1.216-1.123 1.03-2.058a1.567 1.567 0 0 0-1.965-.936l-1.965.655-1.31-3.836 1.965-.654a1.567 1.567 0 0 0 .935-1.965 1.567 1.567 0 0 0-1.964-.935l-1.965.654-.655-2.058a1.567 1.567 0 0 0-1.964-.935 1.567 1.567 0 0 0-.936 1.964l.655 1.965-4.022 1.31-.655-1.965a1.567 1.567 0 0 0-1.965-.935c-.842.28-1.216 1.216-.935 2.058l.654 1.964-1.964.655a1.567 1.567 0 0 0-.936 1.965c.187.561.749 1.029 1.404 1.029.187 0 .374 0 .56-.094l1.872-.655 1.31 3.93-1.965.654a1.567 1.567 0 0 0-.935 1.965c.187.561.748 1.029 1.403 1.029.187 0 .374 0 .561-.094l1.965-.654.655 1.964c.187.561.748 1.03 1.403 1.03.187 0 .374 0 .561-.094a1.567 1.567 0 0 0 .936-1.965l-.655-1.965 4.022-1.31.655 1.965c.188.562.749 1.03 1.404 1.03.187 0 .374 0 .56-.094a1.567 1.567 0 0 0 .936-1.965l-.654-1.964Z"/></svg>