<svg viewBox="0 0 24 24" xmlns="http://www.w3.org/2000/svg" fill="currentColor"><path d="M1.5 4.3c0-1.54 1.26-2.8 2.8-2.8 1.54 0 2.8 1.26 2.8 2.8 0 1.54-1.26 2.8-2.8 2.8-1.54 0-2.8-1.26-2.8-2.8zm0 7.7c0-1.54 1.26-2.8 2.8-2.8 1.54 0 2.8 1.26 2.8 2.8 0 1.54-1.26 2.8-2.8 2.8-1.54 0-2.8-1.26-2.8-2.8zm2.8 4.9c-1.54 0-2.8 1.26-2.8 2.8 0 1.54 1.26 2.8 2.8 2.8 1.54 0 2.8-1.26 2.8-2.8 0-1.54-1.26-2.8-2.8-2.8zm5.6-14h11.9c.42 0 .7.28.7.7V5c0 .42-.28.7-.7.7H9.9c-.42 0-.7-.28-.7-.7V3.6c0-.42.28-.7.7-.7zm11.9 7.7H9.9c-.42 0-.7.28-.7.7v1.4c0 .42.28.7.7.7h11.9c.42 0 .7-.28.7-.7v-1.4c0-.42-.28-.7-.7-.7zM9.9 18.3h11.9c.42 0 .7.28.7.7v1.4c0 .42-.28.7-.7.7H9.9c-.42 0-.7-.28-.7-.7V19c0-.42.28-.7.7-.7z"/></svg>