<svg viewBox="0 0 32 32" fill="currentColor" xmlns="http://www.w3.org/2000/svg"><path fill-rule="evenodd" clip-rule="evenodd" d="M32 6.09c-1.196.499-2.392.898-3.788.997 1.396-.797 2.392-2.093 2.89-3.589-1.295.798-2.69 1.296-4.186 1.595C25.72 3.798 24.025 3 22.23 3c-3.588 0-6.579 2.891-6.579 6.58 0 .498.1.996.2 1.495-5.483-.3-10.268-2.891-13.558-6.879a6.274 6.274 0 0 0-.897 3.29c0 2.293 1.196 4.287 2.89 5.483-1.096 0-2.093-.3-2.99-.798v.1c0 3.19 2.293 5.782 5.283 6.38-.598.1-1.096.2-1.694.2-.399 0-.798 0-1.197-.1.798 2.592 3.29 4.486 6.081 4.585-2.193 1.795-5.084 2.792-8.174 2.792-.498 0-1.097 0-1.595-.1 2.99 1.794 6.48 2.891 10.168 2.891 12.063 0 18.642-9.969 18.642-18.642V9.48c1.196-.997 2.293-2.094 3.19-3.39Z"/></svg>